<?xml version="1.0" standalone="no"?>
<!DOCTYPE svg PUBLIC "-//W3C//DTD SVG 20010904//EN"
 "http://www.w3.org/TR/2001/REC-SVG-20010904/DTD/svg10.dtd">
<svg version="1.0"
    xmlns="http://www.w3.org/2000/svg" width="3148.000000pt" height="1312.000000pt" viewBox="0 0 3148.000000 1312.000000" preserveAspectRatio="xMidYMid meet">

    <g transform="translate(0.000000,1312.000000) scale(0.100000,-0.100000)" stroke="none">

        <!-- Mecanica celular -->
        <!-- M -->
        <path fill="#C62828" d="M14960 9950 c0 -1457 3 -1830 13 -1830 6 0 122 -1 257 -2 l245 -2 2
530 c0 291 -3 745 -7 1009 -16 914 -17 1026 -9 1031 5 2 11 -5 13 -18 13 -65
100 -518 132 -688 20 -107 63 -325 95 -485 74 -361 254 -1265 264 -1322 3 -23
12 -46 18 -51 7 -5 93 -9 192 -8 l179 1 8 35 c4 19 25 132 48 250 22 118 45
233 51 255 5 22 25 121 44 220 18 99 45 236 60 305 44 216 182 914 235 1190
60 316 60 314 67 307 5 -5 3 -761 -2 -892 -6 -153 -7 -1653 -1 -1663 8 -13
505 -8 515 5 3 5 5 828 3 1831 l-2 1822 -357 -2 -357 -3 -28 -130 c-15 -71
-50 -240 -77 -375 -28 -135 -66 -321 -86 -415 -20 -93 -59 -280 -87 -415 -27
-135 -54 -263 -59 -285 -4 -22 -24 -116 -44 -210 -20 -93 -47 -224 -61 -290
-37 -181 -38 -186 -49 -186 -5 0 -11 13 -13 28 -3 30 -79 408 -87 433 -3 8
-22 101 -44 205 -22 105 -54 255 -71 335 -17 80 -55 262 -85 405 -29 143 -74
352 -99 465 -25 113 -55 257 -68 320 l-23 115 -363 3 -362 2 0 -1830z"/>

        <!-- E -->
        <path fill="#C62828" d="M18611 11780 l-774 -5 0 -1821 c0 -1001 3 -1826 7 -1832 5 -8 224
-11 781 -12 l775 0 4 22 c3 13 4 127 3 253 l-2 230 -512 3 -513 2 -1 523 c-1
287 -3 544 -4 570 -1 29 2 50 9 53 6 2 198 5 426 6 l415 3 0 249 0 248 -417 2
c-229 0 -419 4 -422 7 -3 3 -6 230 -6 505 l-1 499 511 3 510 2 0 245 c0 134
-3 245 -7 247 -5 2 -356 1 -782 -2z"/>

        <!-- C -->
        <path fill="#C62828" d="M20465 11823 c-171 -21 -344 -96 -448 -193 -108 -101 -192 -246 -232
-400 -47 -181 -47 -184 -46 -1285 1 -969 2 -1048 20 -1155 56 -343 202 -547
473 -658 114 -47 205 -64 353 -65 149 -1 237 13 350 56 232 88 391 270 460
529 32 121 57 352 53 503 l-3 120 -265 0 -265 0 -7 -200 c-7 -218 -19 -285
-67 -370 -34 -61 -110 -121 -165 -131 -63 -11 -163 -6 -201 10 -55 24 -129
105 -153 168 -41 109 -43 176 -40 1263 3 1021 4 1041 24 1100 53 153 147 225
293 225 112 -1 207 -62 256 -166 32 -67 55 -220 55 -366 0 -61 4 -108 10 -110
5 -1 126 -1 267 2 l258 5 3 80 c5 103 -15 318 -39 421 -60 266 -189 442 -392
537 -88 42 -158 62 -260 76 -74 10 -226 12 -292 4z"/>

        <!-- A -->
        <path fill="#C62828" d="M22367 11745 c-2 -7 -9 -38 -14 -68 -6 -30 -20 -98 -31 -150 -11 -52
-42 -201 -69 -330 -27 -129 -83 -401 -125 -605 -42 -203 -87 -417 -101 -475
-13 -58 -44 -206 -69 -330 -51 -261 -44 -227 -91 -445 -43 -201 -111 -525
-165 -790 -53 -259 -89 -426 -95 -435 -14 -23 35 -28 282 -29 163 0 264 3 268
9 4 6 15 59 25 118 11 59 28 154 40 212 11 58 32 177 46 265 14 88 28 163 33
168 4 4 164 6 356 5 l349 -3 7 -35 c3 -19 11 -64 18 -100 14 -83 76 -419 97
-530 9 -47 20 -89 25 -94 5 -6 126 -11 279 -12 268 -1 277 0 270 31 -1 5 -6
30 -11 55 -5 25 -16 81 -24 125 -8 44 -24 123 -35 175 -11 52 -59 284 -105
515 -46 231 -93 463 -105 515 -11 52 -31 149 -45 215 -13 66 -43 208 -65 315
-50 243 -108 529 -120 595 -5 28 -18 93 -30 145 -12 52 -25 118 -30 145 -5 28
-25 127 -45 220 -74 352 -118 561 -122 588 l-5 27 -294 0 c-227 0 -296 -3
-299 -12z m310 -880 c7 -61 83 -522 125 -758 24 -132 51 -286 85 -485 13 -77
28 -160 33 -185 5 -25 7 -51 4 -58 -3 -9 -68 -12 -269 -12 l-266 0 6 38 c3 20
15 91 27 157 110 622 208 1206 215 1280 4 39 9 73 12 78 12 20 22 1 28 -55z"/>

        <!-- N -->
        <path fill="#C62828" d="M23827 11773 c-4 -3 -7 -821 -7 -1818 0 -1433 3 -1815 13 -1828 11
-14 39 -16 257 -14 l245 2 3 590 c1 325 -4 874 -12 1220 -8 347 -10 634 -6
638 4 5 13 -14 19 -43 6 -28 43 -149 82 -268 131 -398 547 -1644 632 -1892
l84 -245 248 -3 c182 -2 251 1 256 9 4 7 8 833 8 1836 l1 1823 -260 0 -260 0
0 -568 c0 -514 10 -1122 25 -1544 6 -171 -3 -200 -30 -100 -9 31 -20 68 -25
82 -5 14 -32 99 -61 190 -64 203 -302 928 -494 1505 l-143 430 -284 3 c-156 1
-287 -1 -291 -5z"/>

        <!-- I -->
        <path fill="#C62828" d="M26102 9948 l3 -1833 268 0 c260 0 268 1 272 20 3 11 4 835 2 1830
l-2 1810 -273 3 -272 2 2 -1832z"/>

        <!-- C -->
        <path fill="#C62828" d="M27815 11821 c-291 -33 -511 -184 -627 -431 -39 -82 -83 -257 -98
-385 -8 -71 -10 -395 -8 -1110 4 -996 4 -1012 26 -1123 75 -378 247 -577 587
-678 80 -24 108 -27 245 -28 188 -1 285 20 430 91 203 100 347 304 401 567 23
115 41 335 37 456 l-3 95 -266 3 -266 2 -6 -192 c-4 -106 -11 -215 -17 -242
-24 -116 -98 -223 -178 -257 -51 -22 -163 -25 -226 -7 -49 15 -133 95 -160
153 -52 110 -50 65 -54 1170 -2 736 0 1053 8 1110 30 206 143 325 309 325 75
0 122 -15 173 -53 102 -78 136 -177 145 -430 l6 -157 266 2 266 3 -1 150 c-1
237 -31 401 -98 549 -94 206 -261 341 -491 397 -91 22 -291 32 -400 20z"/>

        <!-- A -->
        <path fill="#C62828" d="M29745 11768 c-2 -7 -9 -38 -14 -68 -6 -30 -20 -98 -31 -150 -11 -52
-42 -201 -69 -330 -27 -129 -83 -401 -125 -605 -42 -203 -87 -417 -101 -475
-13 -58 -44 -206 -69 -330 -51 -261 -44 -227 -91 -445 -43 -201 -111 -525
-165 -790 -53 -259 -89 -426 -95 -435 -14 -23 35 -28 282 -29 163 0 264 3 268
9 4 6 15 59 25 118 11 59 28 154 40 212 11 58 32 177 46 265 14 88 28 163 33
168 4 4 164 6 356 5 l349 -3 7 -35 c3 -19 11 -64 18 -100 14 -83 76 -419 97
-530 9 -47 20 -89 25 -94 5 -6 126 -11 279 -12 268 -1 277 0 270 31 -1 5 -6
30 -11 55 -5 25 -16 81 -24 125 -8 44 -24 123 -35 175 -11 52 -59 284 -105
515 -46 231 -93 463 -105 515 -11 52 -31 149 -45 215 -13 66 -43 208 -65 315
-50 243 -108 529 -120 595 -5 28 -18 93 -30 145 -12 52 -25 118 -30 145 -5 28
-25 127 -45 220 -74 352 -118 561 -122 588 l-5 27 -294 0 c-227 0 -296 -3
-299 -12z m310 -880 c7 -61 83 -522 125 -758 24 -132 51 -286 85 -485 13 -77
28 -160 33 -185 5 -25 7 -51 4 -58 -3 -9 -68 -12 -269 -12 l-266 0 6 38 c3 20
15 91 27 157 110 622 208 1206 215 1280 4 39 9 73 12 78 12 20 22 1 28 -55z"/>

        <!-- C -->
        <path fill="#C62828" d="M14750 7466 c-273 -49 -461 -182 -586 -416 -82 -152 -124 -348 -143
-670 -25 -403 -33 -546 -42 -770 -5 -129 -11 -260 -14 -290 -2 -30 -9 -152
-15 -270 -5 -118 -13 -262 -15 -320 -6 -111 13 -319 39 -425 61 -252 235 -451
463 -530 209 -73 461 -71 668 6 81 29 209 115 272 182 67 71 143 188 177 273
60 150 97 370 99 597 l2 142 -30 1 c-89 4 -496 6 -499 3 -2 -2 -8 -94 -14
-204 -12 -230 -31 -324 -86 -409 -36 -56 -96 -104 -155 -124 -19 -7 -66 -12
-105 -12 -60 0 -79 5 -122 30 -86 49 -142 136 -159 245 -13 91 -5 356 30 1020
8 149 20 356 25 460 6 105 15 278 20 385 22 400 62 509 215 587 40 21 64 26
125 26 231 -1 314 -154 292 -541 -4 -74 -5 -135 -2 -137 3 -2 124 -4 270 -6
l265 -4 8 100 c15 191 -9 455 -54 590 -83 247 -250 398 -514 465 -105 27 -312
34 -415 16z"/>

        <!-- E -->
        <path fill="#C62828" d="M16160 7408 c0 -13 -4 -84 -10 -158 -5 -74 -14 -238 -20 -365 -5
-126 -16 -356 -25 -510 -18 -346 -31 -612 -65 -1320 -11 -237 -26 -525 -41
-805 -20 -354 -25 -465 -21 -476 2 -8 225 -11 785 -9 l782 1 6 120 c3 65 10
179 14 252 l8 132 -511 0 c-281 0 -513 4 -516 8 -6 9 8 386 24 677 5 99 13
240 16 312 l7 133 426 2 426 3 6 140 c4 77 8 189 10 248 l4 109 -420 1 -420 2
0 75 c1 69 18 491 33 810 l7 135 508 3 c279 1 507 3 508 5 4 13 25 484 22 490
-2 4 -350 7 -774 7 l-769 0 0 -22z"/>

        <!-- L-->
        <path fill="#C62828" d="M18087 7423 c-2 -5 -5 -57 -6 -118 -1 -60 -4 -119 -6 -130 -3 -11 -9
-137 -15 -280 -6 -143 -17 -379 -25 -525 -8 -146 -22 -400 -30 -565 -8 -165
-19 -385 -25 -490 -10 -182 -20 -389 -40 -780 -5 -99 -15 -279 -22 -400 -7
-121 -12 -254 -13 -295 l0 -75 757 0 757 0 5 70 c10 130 23 420 19 428 -2 4
-222 7 -489 7 l-485 0 6 153 c4 83 11 208 16 276 5 68 9 165 9 215 0 50 4 150
10 221 6 72 17 290 26 485 8 195 19 443 25 550 5 107 14 287 19 400 5 113 16
322 25 465 8 143 15 290 15 328 l0 67 -264 0 c-146 0 -267 -3 -269 -7z"/>

        <!-- U -->
        <path fill="#C62828" d="M19886 7418 c-5 -14 -12 -133 -26 -448 -11 -233 -27 -527 -34 -645
-3 -44 -8 -145 -11 -225 -3 -80 -10 -221 -15 -315 -6 -93 -17 -314 -25 -490
-8 -176 -17 -347 -20 -380 -25 -336 -10 -514 60 -720 76 -223 246 -375 500
-446 67 -19 106 -23 240 -23 138 -1 172 2 250 23 240 63 409 199 515 416 27
55 54 118 59 140 5 22 15 58 20 80 33 125 46 271 76 880 9 165 20 383 25 485
48 918 70 1386 73 1530 l2 145 -260 0 -260 0 -2 -25 c-2 -36 -21 -364 -38
-675 -19 -343 -33 -629 -45 -920 -5 -126 -16 -356 -25 -510 -8 -154 -19 -375
-25 -491 -15 -302 -48 -417 -145 -502 -64 -57 -128 -76 -226 -69 -91 6 -141
33 -196 105 -58 77 -68 130 -67 367 1 116 6 305 13 420 6 116 13 253 16 305
16 319 27 525 36 675 11 193 24 443 39 750 6 116 15 280 20 365 6 85 10 167
10 182 l0 28 -265 0 c-204 0 -267 -3 -269 -12z"/>

        <!-- L -->
        <path fill="#C62828" d="M22024 7418 c-10 -16 -10 -15 -35 -488 -20 -401 -30 -599 -49 -1020
-33 -758 -43 -942 -92 -1785 -7 -121 -13 -251 -13 -290 l0 -70 669 3 c369 1
672 4 674 7 2 2 8 82 12 177 5 95 12 206 16 246 l7 72 -408 0 -408 0 6 163 c9
239 28 626 57 1177 61 1155 90 1797 83 1813 -2 4 -118 7 -258 7 -191 0 -256
-3 -261 -12z"/>

        <!-- A -->
        <path fill="#C62828" d="M24230 7410 c-6 -11 -14 -39 -19 -62 -5 -24 -23 -101 -41 -173 -34
-136 -42 -167 -84 -330 -14 -55 -35 -143 -46 -195 -12 -52 -36 -156 -55 -230
-19 -74 -57 -229 -85 -345 -28 -115 -78 -320 -111 -455 -158 -642 -221 -900
-235 -955 -8 -33 -22 -87 -30 -120 -27 -118 -73 -302 -106 -435 -46 -180 -68
-279 -71 -315 l-2 -30 270 0 269 0 13 55 c7 30 28 132 48 225 35 167 65 306
89 415 l12 55 349 3 c192 1 352 -1 357 -6 5 -5 20 -94 33 -198 14 -104 34
-261 46 -349 11 -88 24 -168 28 -179 6 -17 24 -18 279 -20 l272 -1 0 32 c0 18
-4 54 -10 80 -9 48 -56 340 -125 773 -20 124 -53 333 -75 465 -22 132 -51 314
-65 405 -35 219 -175 1073 -225 1375 -50 294 -90 517 -97 528 -2 4 -132 7
-288 7 -273 0 -285 -1 -295 -20z m299 -1055 c24 -214 98 -793 151 -1171 11
-78 20 -144 20 -148 0 -9 -528 -7 -534 2 -4 7 24 146 73 362 5 25 28 133 51
240 22 107 68 319 100 470 33 151 67 315 75 364 28 159 36 143 64 -119z"/>

        <!-- R-->
        <path fill="#C62828" d="M25846 7418 c-3 -7 -12 -193 -21 -413 -9 -220 -20 -483 -25 -585 -5
-102 -11 -252 -15 -335 -5 -140 -11 -259 -35 -745 -6 -107 -15 -296 -20 -420
-11 -240 -25 -515 -40 -800 -5 -96 -11 -215 -12 -263 l-2 -88 269 0 c255 -1
270 0 272 18 3 23 31 638 44 978 5 143 13 323 17 400 l7 140 129 3 c71 1 133
-1 137 -5 7 -8 61 -252 119 -538 16 -82 55 -271 85 -420 31 -148 65 -317 76
-375 11 -58 26 -127 33 -155 l13 -50 274 0 c151 0 277 4 280 9 4 4 2 20 -2 35
-5 14 -27 112 -49 216 -22 105 -58 269 -80 365 -22 96 -56 247 -75 335 -19 88
-51 230 -70 315 -78 339 -88 394 -76 398 30 10 132 102 188 170 165 199 243
513 230 925 -6 206 -23 300 -75 429 -53 133 -97 201 -167 262 -84 73 -114 93
-197 127 -173 71 -172 71 -715 76 -407 4 -494 3 -497 -9z m935 -515 c122 -61
174 -170 186 -393 7 -145 -11 -330 -43 -437 -38 -129 -110 -206 -228 -246 -65
-22 -374 -25 -382 -4 -2 7 0 96 6 198 13 205 25 464 36 732 l7 179 186 -4
c169 -3 190 -5 232 -25z"/>

        <!-- Rombo -->
        <path fill="#1FA463" d="M29812 3124 L28428 1733 L29812 342 L31196 1733 Z"/>

        <!-- barra inferior (con letras)-->
        <path fill="#243A5E" d="M614 2715 c-4 -8 -4 -455 -1 -993 l4 -977 14267 -3 c7846 -1 14266
-1 14266 1 0 2 -218 223 -485 490 -267 268 -485 493 -485 500 0 6 218 230 484
496 267 267 483 488 480 493 -3 4 -6422 8 -14265 8 -12684 0 -14260 -2 -14265
-15z m2093 -387 c64 -24 123 -87 155 -167 22 -55 23 -64 23 -421 0 -358 0
-366 -24 -434 -32 -92 -94 -157 -170 -180 -70 -21 -205 -21 -262 -1 -55 20
-121 84 -144 139 -9 22 -22 50 -29 61 -7 14 -12 130 -13 375 -2 324 -1 361 17
423 40 141 110 206 245 227 65 10 137 2 202 -22z m1585 7 c54 -19 114 -74 139
-130 23 -51 41 -158 37 -215 l-3 -45 -80 0 c-73 0 -80 2 -82 20 -1 11 -5 55
-8 98 -6 70 -10 81 -41 113 -33 35 -35 36 -93 32 -69 -5 -94 -22 -122 -83 -17
-36 -19 -71 -19 -372 0 -377 5 -417 56 -469 28 -27 42 -34 75 -34 109 0 149
60 157 236 l5 114 -24 1 c-13 1 -40 0 -59 0 -54 -2 -62 8 -58 75 l3 59 148 3
147 3 0 -311 0 -310 -44 0 c-68 0 -76 6 -76 56 0 24 -4 44 -10 44 -5 0 -10 -6
-10 -13 0 -20 -50 -68 -86 -83 -19 -8 -67 -14 -112 -14 -155 0 -233 69 -279
247 -4 15 -8 173 -10 349 -4 302 -3 327 17 405 23 91 43 129 87 171 30 28 101
64 143 72 42 8 153 -3 202 -19z m1809 6 c92 -28 169 -142 172 -254 l2 -61 -65
-18 c-36 -9 -70 -16 -76 -14 -6 3 -14 32 -17 66 -12 109 -62 159 -149 147 -28
-4 -51 -15 -72 -36 -28 -29 -31 -37 -30 -96 1 -80 23 -116 131 -211 233 -204
291 -286 301 -426 7 -115 -16 -187 -83 -254 -62 -62 -119 -79 -241 -72 -143 9
-228 78 -268 218 -15 54 -24 136 -15 143 2 2 31 11 64 20 33 8 68 19 78 22 13
6 17 2 17 -16 1 -56 31 -163 55 -195 53 -69 162 -69 204 0 29 47 28 126 -3
191 -24 52 -76 105 -233 238 -124 106 -160 159 -174 262 -15 99 -1 173 42 238
33 51 110 107 145 107 13 0 26 5 30 11 8 13 129 7 185 -10z m1941 -23 c50 -30
90 -81 113 -147 20 -58 32 -245 16 -255 -6 -4 -42 -10 -80 -13 -81 -7 -85 -3
-82 74 3 74 -18 171 -43 200 -15 18 -35 26 -66 30 -59 6 -108 -20 -137 -72
-22 -39 -23 -46 -23 -397 0 -332 1 -359 20 -402 25 -60 70 -89 128 -83 84 9
111 56 119 212 l6 115 84 0 83 0 0 -81 c0 -140 -38 -266 -97 -320 -52 -49 -92
-63 -193 -67 -123 -5 -190 18 -249 84 -77 88 -95 212 -89 607 5 244 7 279 27
339 51 159 153 221 341 207 58 -4 88 -12 122 -31z m9561 15 c32 -10 64 -31 97
-64 42 -42 53 -62 75 -132 24 -81 25 -90 25 -394 0 -330 -5 -384 -46 -472 -52
-115 -132 -161 -277 -161 -137 0 -212 34 -266 119 -57 90 -61 125 -61 498 0
300 2 346 19 406 28 101 82 168 158 198 73 29 189 30 276 2z m760 -1 c50 -23
92 -63 118 -113 21 -42 53 -174 45 -187 -3 -5 -33 -15 -67 -21 -33 -7 -67 -15
-74 -17 -14 -6 -18 10 -30 98 -5 35 -15 57 -39 83 -29 30 -40 35 -79 35 -64 0
-93 -16 -117 -65 -23 -48 -25 -85 -6 -138 17 -47 31 -63 121 -139 147 -126
235 -220 268 -288 28 -59 31 -74 32 -165 0 -90 -3 -106 -28 -157 -53 -107
-126 -148 -266 -148 -170 0 -266 85 -305 271 -12 58 -13 77 -3 86 9 8 136 53
152 53 1 0 8 -35 15 -77 21 -130 69 -193 148 -193 103 0 154 128 98 245 -30
60 -51 83 -186 201 -140 123 -175 161 -198 214 -44 100 -32 253 25 334 34 49
103 93 163 106 63 13 163 4 213 -18z m2420 6 c58 -15 118 -64 151 -121 48 -83
54 -134 56 -475 0 -285 -1 -325 -19 -394 -46 -180 -144 -247 -342 -236 -95 5
-145 26 -195 80 -44 48 -60 77 -78 144 -15 51 -17 107 -14 409 3 336 4 353 26
414 59 162 221 232 415 179z m2020 -4 c52 -18 104 -70 137 -140 21 -43 41
-139 33 -159 -4 -11 -142 -49 -150 -41 -2 2 -8 31 -13 64 -16 116 -56 158
-142 150 -42 -4 -57 -11 -79 -36 -35 -39 -45 -90 -29 -148 14 -51 52 -93 229
-253 157 -144 201 -223 201 -369 0 -58 -5 -85 -28 -135 -54 -119 -142 -164
-298 -155 -154 9 -235 86 -274 259 -20 91 -16 99 69 125 41 13 78 21 81 19 4
-3 10 -35 14 -72 10 -96 35 -147 85 -172 49 -25 72 -26 117 -5 46 22 64 60 64
131 -1 105 -27 142 -216 306 -115 100 -176 169 -202 230 -15 36 -16 188 0 239
14 49 85 130 133 152 79 38 176 42 268 10z m1156 -4 c64 -28 120 -89 152 -167
23 -57 24 -66 27 -403 3 -298 1 -354 -14 -410 -44 -171 -135 -240 -315 -240
-140 0 -219 45 -273 155 -44 90 -47 130 -44 496 l3 344 28 66 c56 133 156 193
308 185 48 -2 94 -12 128 -26z m3554 -8 c82 -44 134 -135 139 -246 l3 -49 -70
-18 c-76 -18 -85 -17 -85 11 0 58 -24 126 -57 159 -32 32 -36 33 -90 29 -47
-4 -61 -10 -84 -36 -36 -40 -45 -90 -28 -150 10 -38 26 -60 83 -112 302 -280
338 -329 345 -478 4 -101 -9 -151 -54 -214 -54 -74 -108 -100 -218 -105 -77
-4 -101 -2 -149 17 -102 38 -168 139 -183 280 l-7 65 69 19 c37 10 75 21 84
23 13 4 17 -8 23 -68 8 -92 35 -152 78 -179 43 -26 87 -25 129 3 44 29 59 60
59 122 0 99 -49 165 -267 354 -116 101 -155 162 -167 266 -7 55 18 168 48 220
29 49 103 102 155 111 20 3 41 7 46 10 6 2 41 1 79 -1 49 -4 83 -13 119 -33z
m-25541 -6 c108 -53 166 -184 155 -350 -14 -222 -116 -316 -344 -316 l-83 0
-2 -262 -3 -263 -90 0 -90 0 -2 595 c-2 327 -1 601 2 609 4 10 45 12 213 9
175 -3 213 -6 244 -22z m1258 -58 c18 -46 40 -101 50 -123 9 -22 41 -101 70
-175 116 -294 145 -362 155 -361 6 1 10 131 10 369 l0 367 78 3 77 3 -2 -608
-3 -608 -62 -3 -63 -3 -16 38 c-20 46 -25 57 -64 158 -18 44 -36 89 -40 100
-58 139 -130 317 -154 386 -17 47 -35 87 -41 87 -7 1 -10 -131 -10 -381 l0
-382 -77 -3 c-49 -2 -78 1 -78 8 0 5 0 276 0 600 0 325 0 595 0 600 0 6 30 10
69 10 l68 0 33 -82z m1800 2 c27 -113 72 -319 80 -371 5 -25 15 -75 24 -110 9
-35 27 -120 41 -189 44 -213 95 -463 95 -467 0 -6 -155 -2 -166 5 -6 4 -22 64
-35 134 l-23 127 -119 3 c-73 2 -121 -1 -123 -7 -2 -5 -14 -66 -27 -135 l-22
-125 -83 -2 c-45 0 -84 2 -86 5 -2 4 6 54 19 112 12 58 42 197 65 310 22 113
45 225 51 250 5 25 24 122 43 215 19 94 43 205 53 248 l18 78 89 -3 88 -3 18
-75z m1570 -352 c0 -535 8 -592 83 -638 63 -39 147 -15 184 52 16 30 18 76 23
523 l5 490 85 0 85 0 0 -475 c0 -466 0 -476 -23 -547 -26 -83 -62 -131 -131
-171 -43 -25 -53 -27 -166 -27 -138 0 -180 15 -234 83 -76 96 -80 135 -81 668
0 253 3 464 7 467 3 4 42 7 85 7 l78 0 0 -432z m2220 362 l0 -69 -151 -3 -150
-3 0 -177 c0 -98 1 -182 1 -187 0 -5 55 -9 123 -9 l122 0 3 -66 3 -66 -126 0
-125 0 0 -215 0 -214 153 -3 152 -3 -1 -65 0 -65 -242 -3 -242 -2 0 610 0 610
240 0 240 0 0 -70z m330 -470 l0 -540 155 0 156 0 -3 -68 -3 -67 -242 -3 -243
-2 0 610 0 610 90 0 90 0 0 -540z m592 53 c2 -390 6 -493 17 -513 60 -110 189
-120 243 -18 23 43 23 45 28 528 l5 485 83 3 82 3 0 -468 c-1 -497 -4 -532
-50 -628 -47 -96 -125 -135 -274 -135 -160 0 -251 70 -292 225 -11 38 -14 161
-14 528 l0 477 84 0 85 0 3 -487z m810 -50 l3 -538 158 -3 157 -3 0 -69 0 -70
-247 2 -248 3 1 60 c1 33 2 306 3 608 l1 547 85 0 85 0 2 -537z m818 485 c14
-59 20 -93 44 -223 9 -49 21 -103 26 -120 4 -16 13 -54 19 -82 6 -29 16 -74
21 -100 6 -27 28 -136 51 -243 22 -107 50 -238 61 -290 12 -52 21 -97 20 -99
-4 -11 -162 -8 -170 3 -5 6 -14 40 -20 76 -7 36 -17 91 -23 123 l-11 57 -104
2 c-57 1 -112 2 -121 2 -15 1 -21 -16 -35 -100 -9 -56 -21 -116 -25 -135 l-9
-34 -74 -3 c-40 -2 -79 -1 -85 2 -9 3 -6 32 12 113 13 59 62 295 108 523 92
450 112 548 120 568 3 8 31 12 94 12 l89 0 12 -52z m792 32 c68 -26 133 -90
155 -154 27 -77 24 -265 -4 -326 -22 -47 -65 -99 -97 -117 -18 -10 -16 -20 32
-189 54 -186 102 -368 105 -394 3 -20 -154 -28 -170 -8 -6 7 -40 130 -76 273
l-65 260 -61 3 c-45 2 -61 0 -61 -10 0 -7 -1 -130 -3 -273 l-2 -260 -87 -3
c-49 -1 -88 1 -88 5 -1 40 -1 1200 -1 1206 1 4 84 7 186 7 160 0 192 -3 237
-20z m1168 -50 l0 -71 -137 1 c-76 1 -146 1 -156 0 -17 0 -18 -13 -16 -185 1
-128 5 -185 13 -186 6 0 62 0 124 1 126 1 120 5 124 -80 l3 -55 -130 -5 -130
-5 0 -210 0 -210 158 -3 158 -3 -3 -67 -3 -67 -244 0 -245 0 -2 600 c-1 330 0
603 3 608 2 4 112 7 244 7 l239 0 0 -70z m387 -165 c52 -126 102 -248 112
-270 10 -22 35 -86 57 -142 21 -57 42 -103 47 -103 4 0 7 169 7 375 l0 376 78
-3 77 -3 0 -605 0 -605 -49 -3 c-67 -4 -93 4 -102 31 -11 38 -260 674 -290
742 -6 12 -11 -134 -14 -375 l-5 -395 -75 0 -75 0 -3 608 -2 608 71 -3 71 -3
95 -230z m1107 218 c3 -10 12 -54 21 -98 17 -83 28 -135 88 -415 19 -91 45
-214 57 -275 12 -60 26 -114 31 -120 6 -5 9 -5 9 1 0 15 89 434 130 614 12 52
32 142 43 200 l22 105 91 3 91 3 7 -198 c3 -109 9 -297 12 -418 3 -121 9 -303
13 -405 4 -102 4 -189 1 -193 -4 -4 -38 -7 -76 -5 l-69 3 -7 195 c-3 107 -9
263 -12 345 -3 83 -6 176 -6 208 0 31 -4 57 -10 57 -5 0 -10 -10 -10 -22 0
-13 -16 -93 -35 -178 -20 -85 -56 -249 -81 -365 -25 -115 -47 -218 -50 -227
-4 -14 -17 -18 -58 -18 -61 0 -71 8 -79 65 -3 22 -14 81 -25 130 -25 113 -50
223 -98 443 -21 94 -41 172 -44 172 -4 0 -10 -177 -14 -392 -5 -258 -11 -397
-18 -406 -8 -9 -32 -12 -77 -10 l-66 3 0 95 c0 52 3 217 8 365 4 149 10 374
13 500 3 127 7 236 9 243 3 8 31 12 94 12 77 0 90 -3 95 -17z m1186 -95 c12
-62 35 -169 50 -238 16 -69 47 -217 70 -330 23 -113 44 -208 46 -211 8 -13 64
-312 59 -319 -6 -10 -147 -12 -161 -3 -6 5 -21 64 -33 133 -13 69 -23 126 -25
127 -1 1 -55 3 -121 4 l-120 1 -6 -38 c-16 -94 -40 -218 -45 -225 -6 -11 -161
-12 -168 -1 -2 4 4 46 15 92 17 77 75 359 114 550 8 41 28 138 45 215 16 77
38 184 49 237 10 53 22 102 26 107 3 7 43 11 94 11 l88 0 23 -112z m516 55
c14 -32 29 -67 34 -78 5 -11 62 -150 126 -310 117 -292 132 -328 135 -310 0 6
1 177 2 380 l2 370 75 0 75 0 0 -605 0 -605 -64 0 c-47 0 -66 4 -71 15 -14 28
-29 65 -50 120 -11 30 -25 64 -30 75 -5 11 -46 115 -91 230 -45 116 -85 215
-89 220 -4 6 -13 28 -20 50 -33 105 -35 90 -40 -315 l-5 -395 -75 0 -75 0 -3
608 -2 607 70 0 71 0 25 -57z m2767 37 c121 -45 183 -179 170 -370 -7 -101
-29 -156 -87 -216 -64 -65 -120 -84 -253 -84 l-93 0 0 -265 0 -266 -87 3 -88
3 -3 595 c-1 327 0 601 3 608 3 9 52 12 194 12 166 0 197 -3 244 -20z m699 7
c69 -18 128 -65 163 -128 28 -52 29 -59 30 -184 0 -118 -2 -134 -24 -178 -24
-46 -56 -83 -95 -111 -19 -13 -19 -15 8 -107 62 -210 134 -484 129 -491 -8
-14 -160 -9 -170 5 -5 6 -38 129 -74 272 -35 143 -68 263 -74 267 -5 4 -32 6
-60 5 l-50 -2 -5 -275 -5 -275 -85 0 -85 0 -3 608 -2 607 177 0 c108 0 196 -5
225 -13z m1653 -57 l0 -65 -150 -1 -150 -2 0 -188 0 -188 119 3 c90 2 121 -1
127 -11 13 -19 11 -116 -2 -124 -6 -3 -64 -6 -130 -5 l-119 2 -2 -283 -3 -283
-85 0 -85 0 -1 600 c-1 330 1 603 3 608 2 4 111 6 241 5 l237 -3 0 -65z m623
3 l-3 -68 -153 -3 -152 -3 2 -186 3 -186 125 -1 125 -1 3 -67 3 -68 -131 0
-130 0 0 -215 0 -214 158 -3 157 -3 0 -65 0 -65 -245 0 -245 0 -3 608 -2 607
245 0 246 0 -3 -67z m1042 -543 l0 -611 -87 3 -88 3 -3 595 c-1 327 0 601 3
608 3 8 31 12 90 12 l85 0 0 -610z m1201 450 c34 -85 72 -184 86 -220 13 -36
31 -78 38 -95 7 -16 34 -82 60 -145 47 -115 65 -147 65 -119 0 7 2 176 3 374
l2 360 78 3 77 3 -2 -608 -3 -608 -69 0 -70 0 -16 45 c-9 25 -20 54 -25 65
-44 112 -164 418 -205 525 -29 74 -57 139 -62 145 -5 6 -8 -157 -8 -385 l1
-395 -78 0 -78 0 -3 595 c-1 327 0 601 3 608 3 9 25 12 75 10 l71 -3 60 -155z
m996 5 c18 -82 42 -195 54 -250 12 -55 29 -140 39 -190 10 -49 23 -115 30
-145 7 -30 16 -73 20 -95 4 -22 22 -110 40 -195 18 -85 33 -162 34 -170 1 -12
-15 -16 -78 -18 -44 -2 -83 1 -87 5 -9 9 -49 205 -49 241 0 22 -1 23 -127 20
l-128 -3 -6 -40 c-13 -82 -29 -181 -34 -202 -5 -22 -10 -23 -90 -23 -47 0 -85
4 -85 8 0 5 18 96 40 203 23 107 56 271 75 364 19 94 42 202 50 240 9 39 29
140 46 225 16 85 32 161 34 168 4 9 29 12 97 10 l93 -3 32 -150z m525 -382 l3
-538 155 -5 155 -5 0 -65 0 -65 -245 0 -245 0 -3 608 -2 607 90 0 90 0 2 -537z
m918 467 l0 -70 -155 0 -155 0 2 -187 3 -187 115 3 c63 1 122 0 130 -3 11 -5
15 -22 15 -69 l0 -62 -130 -5 -130 -5 0 -210 0 -210 158 -3 157 -3 0 -69 0
-70 -247 2 -248 3 -3 608 -2 607 245 0 245 0 0 -70z"/>

        <!-- Relleno letras -->
        <path fill="#243A5E" d="M2510 2202 c-36 -16 -61 -41 -77 -78 -14 -33 -17 -85 -21 -340 -4
-310 4 -426 34 -472 27 -42 74 -64 126 -59 62 5 95 29 119 85 19 43 20 65 17
406 -3 342 -4 363 -23 396 -33 56 -120 86 -175 62z"/>

        <path fill="#243A5E" d="M17398 2195 c-16 -9 -38 -35 -50 -58 -23 -41 -23 -48 -23 -402 0
-353 0 -361 22 -406 51 -103 192 -106 246 -5 22 40 22 49 22 411 0 399 0 400
-54 449 -29 26 -125 32 -163 11z"/>

        <path fill="#243A5E" d="M20600 2192 c-23 -11 -43 -33 -57 -62 -23 -43 -23 -51 -22 -395 0
-306 2 -356 17 -395 44 -114 194 -122 248 -14 18 36 19 64 19 409 0 409 0 409
-64 452 -41 28 -93 30 -141 5z"/>

        <path fill="#243A5E" d="M23755 2200 c-31 -12 -64 -53 -75 -91 -6 -19 -10 -185 -10 -384 0
-324 2 -353 20 -392 47 -105 192 -111 247 -11 16 30 18 68 21 385 3 389 0 417
-53 470 -29 29 -40 33 -81 32 -27 0 -58 -4 -69 -9z"/>

        <path fill="#243A5E" d="M1704 2201 c-2 -2 -4 -96 -4 -208 l0 -203 74 0 c132 0 176 52 176
208 0 159 -28 194 -157 202 -47 3 -87 3 -89 1z"/>

        <path fill="#243A5E" d="M4916 2018 c-2 -7 -20 -107 -40 -223 -20 -115 -39 -222 -42 -237 l-6
-28 96 0 c53 0 96 2 96 4 0 5 -31 171 -55 298 -8 42 -18 102 -21 133 -7 54
-20 80 -28 53z"/>

        <path fill="#243A5E" d="M11256 2018 c-2 -13 -16 -93 -31 -178 -15 -85 -33 -189 -41 -230 -7
-41 -14 -76 -14 -77 0 -2 43 -3 96 -3 l96 0 -7 43 c-3 23 -13 76 -20 117 -28
150 -44 246 -50 292 -7 52 -22 72 -29 36z"/>

        <path fill="#243A5E" d="M11924 2201 c-2 -2 -4 -91 -4 -198 l0 -193 63 0 c71 0 120 20 151 63
18 25 21 43 21 136 0 115 -10 144 -59 177 -22 14 -160 26 -172 15z"/>

        <path fill="#243A5E" d="M15886 2018 c-2 -7 -9 -49 -16 -93 -7 -44 -18 -116 -26 -160 -8 -44
-18 -108 -24 -142 -5 -35 -11 -68 -12 -75 -2 -10 21 -14 90 -16 50 -1 92 1 92
5 0 10 -21 123 -54 303 -14 74 -26 145 -26 157 0 25 -18 41 -24 21z"/>

        <path fill="#243A5E" d="M19042 2201 c-13 -9 -16 -390 -3 -404 16 -20 166 -4 193 20 38 33 58
92 58 173 0 100 -13 147 -47 182 -26 26 -36 28 -110 31 -46 2 -86 1 -91 -2z"/>

        <path fill="#243A5E" d="M19775 2198 c-3 -8 -4 -97 -3 -198 l3 -185 70 3 c127 7 170 54 170
187 0 105 -23 161 -77 185 -48 21 -156 27 -163 8z"/>

        <path fill="#243A5E" d="M25377 2030 c-3 -8 -10 -46 -17 -85 -12 -78 -32 -190 -55 -307 -23
-118 -29 -109 78 -106 60 2 91 7 90 14 -6 36 -35 208 -53 324 -24 146 -34 185
-43 160z"/>

        <!-- Lado izquierdo-->
        <path fill="#243A5E" d="M12233 12515 c-77 -21 -130 -51 -190 -108 -29 -27 -53 -53 -53 -56 0
-3 66 -7 148 -8 81 -1 190 -8 242 -17 646 -104 1403 -505 1694 -896 27 -36 53
-65 59 -65 6 0 31 38 55 85 42 81 44 88 39 147 -8 82 -36 134 -116 214 -134
134 -519 360 -816 479 -44 17 -105 42 -135 55 -151 62 -422 142 -583 170 -103
18 -276 18 -344 0z"/>

        <path fill="#243A5E" d="M12003 12209 c-82 -16 -108 -35 -146 -110 -58 -113 -135 -256 -210
-389 -38 -69 -92 -168 -120 -220 -27 -52 -65 -121 -83 -153 -19 -32 -34 -60
-34 -61 0 -2 -25 -48 -56 -102 -68 -120 -90 -158 -161 -294 -31 -58 -60 -109
-64 -115 -4 -5 -23 -39 -42 -75 -19 -36 -43 -81 -54 -100 -11 -19 -57 -100
-101 -179 -45 -79 -82 -146 -82 -148 0 -5 -138 -252 -245 -438 -28 -49 -73
-130 -100 -180 -26 -49 -74 -135 -105 -190 -31 -55 -75 -134 -98 -175 -22 -41
-61 -113 -86 -159 -25 -47 -46 -87 -46 -90 0 -3 42 -28 93 -55 50 -27 151 -82
222 -121 72 -40 171 -93 220 -120 50 -26 117 -62 150 -80 33 -18 96 -52 140
-75 44 -24 132 -71 195 -105 63 -34 270 -144 460 -245 392 -207 565 -304 597
-333 13 -11 25 -19 27 -16 7 8 104 185 150 275 25 49 60 114 77 144 42 73 199
368 199 374 0 2 26 51 58 108 33 57 94 171 137 253 43 83 89 167 102 187 13
21 23 40 23 42 0 3 26 53 58 113 33 59 78 144 102 188 24 44 74 139 113 210
39 72 90 168 115 215 24 47 72 137 107 200 58 108 83 155 208 390 52 98 64
120 176 325 36 66 86 159 110 206 l44 85 -41 85 c-65 133 -242 309 -437 434
-33 21 -76 49 -95 61 -117 76 -421 224 -565 274 -66 23 -129 45 -140 50 -11 4
-51 17 -90 28 -257 74 -544 109 -682 81z m74 -488 c48 -21 135 -60 193 -86 58
-26 121 -53 140 -60 19 -7 70 -29 113 -49 42 -20 79 -36 82 -36 2 0 32 -13 67
-29 162 -73 476 -211 482 -211 3 0 42 -17 88 -39 46 -21 117 -54 158 -72 106
-47 149 -76 161 -106 14 -37 7 -59 -50 -161 -27 -49 -88 -164 -135 -256 -48
-93 -93 -178 -100 -190 -7 -11 -39 -70 -71 -131 -32 -60 -89 -167 -126 -236
-38 -69 -69 -128 -69 -132 0 -3 -15 -32 -33 -64 -19 -32 -60 -107 -92 -168
-32 -60 -80 -153 -108 -205 -53 -100 -243 -456 -294 -550 -17 -30 -58 -109
-93 -175 -34 -66 -92 -176 -128 -245 -98 -188 -124 -226 -166 -240 -34 -11
-41 -8 -193 71 -276 142 -425 220 -553 289 -69 37 -210 111 -315 165 -104 54
-203 106 -220 115 -16 10 -75 41 -129 70 -137 72 -138 72 -168 99 -48 42 -41
64 113 347 78 142 169 311 204 374 34 63 103 189 152 280 49 91 111 206 138
255 26 50 83 152 127 229 43 76 78 140 78 143 0 2 44 84 98 181 100 178 191
345 274 502 165 309 203 360 264 360 13 0 63 -17 111 -39z"/>

        <path fill="#243A5E" d="M11960 11622 c0 -6 -46 -93 -101 -194 -56 -101 -114 -205 -129 -233
-15 -27 -52 -95 -82 -150 -30 -55 -70 -127 -88 -160 -18 -33 -58 -107 -90
-165 -32 -58 -73 -134 -92 -170 -19 -36 -61 -112 -93 -170 -32 -58 -76 -139
-98 -180 -22 -41 -43 -79 -47 -85 -4 -5 -43 -75 -85 -155 -43 -80 -90 -167
-105 -195 -15 -27 -42 -77 -60 -110 -18 -33 -67 -123 -110 -200 -115 -209
-162 -297 -158 -299 2 -2 91 -47 198 -101 107 -53 200 -101 205 -105 6 -4 100
-53 210 -110 110 -56 232 -119 270 -140 155 -83 246 -131 379 -200 77 -40 148
-77 158 -83 9 -6 19 -9 21 -7 3 3 40 70 82 150 43 80 88 163 100 186 12 22 57
107 100 190 43 82 92 176 110 209 18 33 54 101 80 150 26 50 59 110 73 135 14
25 56 106 95 180 38 74 92 174 118 222 27 48 49 89 49 91 0 3 18 37 41 78 23
41 73 135 111 209 39 74 81 153 93 175 52 92 67 120 136 252 78 150 115 218
161 296 16 27 26 53 21 58 -4 4 -66 33 -138 64 -139 60 -158 68 -250 110 -33
15 -94 42 -135 60 -41 18 -97 42 -125 55 -63 28 -93 41 -175 75 -86 36 -122
51 -200 87 -36 17 -85 38 -110 48 -25 10 -81 35 -125 55 -77 36 -160 71 -197
82 -10 3 -18 1 -18 -5z"/>

        <path fill="#243A5E" d="M3513 12028 c-17 -51 -65 -192 -107 -313 -42 -121 -76 -223 -76 -227
0 -5 1802 -8 4004 -8 3191 0 4006 3 4014 13 5 6 35 59 65 117 52 99 94 177
216 399 28 52 51 98 51 103 0 4 -1831 8 -4069 8 l-4068 0 -30 -92z"/>

        <path fill="#243A5E" d="M13980 12111 c0 -4 21 -21 48 -38 79 -50 202 -154 244 -207 79 -100
124 -228 115 -324 -5 -50 -28 -98 -167 -357 -29 -54 -111 -210 -210 -400 -34
-66 -99 -187 -145 -270 -45 -82 -102 -188 -127 -235 -25 -47 -92 -173 -150
-280 -103 -190 -139 -257 -221 -410 -57 -108 -105 -197 -140 -260 -16 -30 -43
-80 -60 -110 -16 -30 -40 -73 -52 -95 -12 -22 -45 -83 -72 -135 -55 -103 -167
-313 -273 -510 -37 -69 -91 -170 -120 -225 -29 -55 -65 -122 -80 -150 -15 -27
-65 -122 -110 -210 -46 -88 -92 -173 -102 -190 -13 -23 -18 -50 -18 -112 0
-99 -14 -172 -47 -236 -20 -41 -709 -910 -1164 -1467 -73 -91 -183 -228 -244
-304 -60 -76 -154 -193 -208 -260 -55 -66 -144 -177 -200 -246 -55 -69 -117
-145 -137 -170 -20 -25 -81 -101 -136 -170 -54 -69 -198 -246 -319 -395 -121
-148 -245 -301 -275 -340 -30 -38 -74 -92 -97 -119 -24 -27 -43 -52 -43 -55 0
-6 2681 -3 2687 3 5 4 121 401 174 596 20 69 29 100 137 470 139 472 224 762
268 915 19 66 46 158 60 205 48 159 62 205 89 300 15 52 31 104 35 115 4 11
13 38 18 60 6 22 20 70 31 106 11 37 36 122 55 190 19 68 55 194 81 279 25 85
60 200 76 255 16 55 43 143 59 195 16 52 50 167 76 255 51 176 110 376 156
530 16 55 38 129 48 165 15 55 86 294 135 460 7 25 29 99 48 165 20 66 54 183
77 260 23 77 46 155 50 173 5 19 13 46 18 60 6 15 29 92 52 172 75 261 212
722 262 885 27 88 73 243 102 345 59 203 75 258 166 560 34 113 76 250 92 305
16 55 41 134 54 175 13 41 24 78 24 83 0 4 -139 7 -310 7 -170 0 -310 -4 -310
-9z"/>

        <path fill="#243A5E" d="M3212 11155 c-4 -5 -16 -39 -28 -75 -29 -87 -180 -520 -189 -542 -5
-12 -3 -18 6 -18 2015 2 3299 -3 3299 -14 0 -6 -28 -30 -62 -51 -77 -50 -123
-87 -217 -178 l-73 -72 -1536 -5 -1535 -5 -72 -210 c-39 -115 -89 -257 -109
-313 -21 -57 -36 -106 -33 -108 2 -3 655 -5 1450 -5 795 0 1448 -3 1450 -7 2
-4 -7 -43 -22 -87 -21 -65 -34 -89 -73 -128 -95 -95 56 -87 -1525 -87 l-1392
0 -19 -52 c-68 -183 -202 -581 -198 -586 3 -3 129 -5 280 -6 151 -1 278 -4
282 -8 4 -5 5 -8 2 -8 -28 0 -620 -160 -632 -171 -9 -8 -66 -166 -66 -183 0
-4 8 -5 18 -1 23 9 163 50 281 82 53 14 134 36 181 49 440 120 552 150 665
181 72 19 153 41 180 48 28 7 82 22 120 33 39 10 124 34 190 51 66 18 165 45
220 61 86 25 187 52 560 150 39 11 95 26 125 34 144 40 409 110 549 147 261
68 342 142 428 398 106 316 208 479 434 696 261 250 548 379 926 416 98 10
147 10 240 -1 210 -22 432 -85 598 -168 82 -41 218 -133 209 -141 -5 -4 -74
-34 -154 -65 -80 -32 -154 -61 -165 -66 -20 -8 -75 -29 -142 -54 -77 -29 -409
-160 -448 -176 -22 -9 -65 -26 -95 -37 -177 -66 -203 -78 -225 -107 -31 -43
-34 -55 -51 -196 -9 -69 -19 -154 -24 -190 -5 -36 -13 -101 -19 -145 -6 -44
-18 -134 -27 -200 -9 -66 -18 -148 -21 -182 l-5 -63 159 -163 c297 -303 466
-469 497 -488 37 -23 101 -25 153 -5 91 34 361 139 388 151 39 17 287 113 395
154 96 37 107 41 172 70 26 12 52 21 56 21 5 0 22 6 38 14 42 21 84 30 84 18
0 -29 -63 -221 -100 -306 -104 -237 -306 -484 -522 -638 -169 -122 -416 -229
-630 -274 -106 -22 -385 -25 -508 -5 -251 40 -517 161 -720 326 -85 70 -144
100 -222 114 -88 17 -167 2 -553 -103 -274 -74 -556 -149 -925 -245 -63 -16
-180 -48 -260 -70 -80 -22 -233 -62 -340 -90 -107 -28 -229 -60 -270 -71 -41
-11 -187 -49 -325 -85 -137 -35 -317 -83 -400 -105 -182 -50 -431 -116 -660
-175 -93 -24 -222 -57 -285 -74 -63 -17 -134 -36 -157 -42 -24 -7 -43 -16 -43
-20 0 -5 1355 -9 3116 -9 l3115 0 40 44 c22 24 99 114 172 199 73 86 176 208
231 272 54 64 96 119 92 123 -4 4 -138 6 -296 5 -173 -2 -291 1 -295 7 -3 5
11 16 31 25 66 27 228 140 305 213 l77 72 229 0 228 0 272 318 273 317 -280 3
c-154 1 -280 4 -280 7 0 2 11 48 24 102 14 54 28 116 32 138 13 78 -12 73 326
68 167 -2 326 -1 354 2 l51 6 6 87 c6 105 27 172 73 235 67 92 165 143 292
152 31 2 60 4 65 4 4 1 7 5 7 10 0 6 16 36 35 68 19 32 35 64 35 71 0 9 -319
12 -1560 12 l-1560 0 1 38 c0 20 8 89 17 152 l17 115 1634 1 1633 2 62 113
c34 63 74 134 88 159 14 25 47 86 73 135 26 50 65 119 87 154 21 34 38 67 38
72 0 5 -453 9 -1091 9 l-1092 0 -36 41 c-47 53 -179 164 -261 220 l-65 44 50
7 c28 3 639 6 1359 7 1062 0 1312 2 1321 13 7 7 27 40 45 73 17 33 74 134 125
225 51 91 113 201 138 245 l45 80 -1127 2 c-3558 8 -6823 7 -6829 -2z m5061
-2559 c1 -5 -47 -26 -108 -48 -106 -38 -128 -46 -177 -68 -13 -5 -60 -23 -105
-39 -45 -17 -152 -58 -238 -91 -86 -34 -161 -60 -165 -58 -20 7 -309 301 -304
310 7 11 1093 6 1097 -6z m-2255 -998 c22 -13 91 -59 152 -103 60 -44 136 -94
167 -111 31 -17 58 -35 60 -40 3 -10 -1564 -11 -1574 -1 -3 4 8 9 23 12 44 10
397 100 504 129 52 14 154 42 225 61 294 80 373 90 443 53z"/>

        <path fill="#243A5E" d="M9904 8917 c-56 -21 -104 -61 -125 -104 -16 -33 -20 -62 -21 -144 -1
-96 1 -103 23 -120 22 -17 343 -198 489 -277 36 -19 121 -66 190 -104 69 -39
154 -86 190 -106 55 -30 440 -243 550 -305 19 -11 118 -66 220 -122 102 -56
201 -112 220 -124 51 -31 58 -28 53 22 -7 58 21 169 58 234 18 32 55 74 89
101 54 43 74 72 50 72 -5 0 -31 13 -57 28 -26 16 -97 55 -158 87 -60 32 -132
70 -160 85 -27 15 -95 51 -150 80 -55 29 -167 90 -250 135 -82 45 -206 110
-274 145 -68 35 -169 89 -225 120 -135 76 -229 126 -423 226 -140 72 -169 84
-210 83 -26 0 -62 -6 -79 -12z"/>

        <path fill="#243A5E" d="M9629 8363 c-47 -58 -511 -604 -648 -763 -26 -30 -126 -147 -221
-260 -96 -113 -208 -245 -250 -295 -42 -49 -152 -180 -245 -290 -220 -260
-300 -354 -534 -629 l-194 -227 -86 -43 c-47 -24 -129 -62 -182 -85 -104 -45
-133 -69 -143 -116 -9 -45 9 -133 40 -200 81 -171 579 -562 1079 -846 344
-196 541 -258 725 -230 45 7 92 16 103 20 12 5 47 16 77 26 74 24 206 91 253
127 21 17 89 94 151 172 62 77 256 319 431 536 373 462 1053 1309 1140 1420
33 41 79 98 102 125 23 28 104 129 179 225 76 96 161 203 191 237 29 33 53 65
53 70 0 11 -114 76 -600 343 -223 123 -461 255 -530 293 -69 39 -150 84 -180
100 -91 50 -397 220 -524 291 -65 36 -122 66 -125 66 -4 0 -32 -30 -62 -67z
m153 -249 c14 -29 17 -23 -69 -128 -35 -42 -63 -78 -63 -81 0 -7 337 -175 352
-175 6 0 63 25 125 55 138 67 180 76 221 46 17 -11 33 -21 37 -21 16 0 318
-174 345 -200 35 -33 39 -73 15 -185 -26 -123 -28 -121 140 -215 61 -34 127
-73 147 -86 21 -13 39 -24 41 -24 2 0 36 41 76 90 84 104 99 115 135 99 54
-25 46 -50 -55 -174 -32 -38 -92 -113 -134 -165 -42 -52 -140 -174 -218 -270
-78 -96 -181 -224 -230 -285 -49 -60 -123 -152 -165 -204 -43 -52 -97 -120
-122 -151 -25 -31 -125 -156 -222 -276 -360 -445 -407 -504 -592 -734 -103
-129 -200 -245 -214 -257 -15 -12 -49 -27 -76 -33 -43 -9 -59 -7 -126 14 -73
24 -386 178 -498 244 -29 18 -55 32 -58 32 -5 0 -233 140 -319 195 -27 18
-104 67 -170 110 -132 86 -306 224 -360 287 -30 36 -35 49 -35 93 0 61 -18 36
231 325 174 203 293 344 537 635 69 83 141 168 161 191 20 22 90 105 156 183
66 79 152 180 190 225 39 45 126 149 195 231 69 82 172 203 230 269 58 67 132
153 165 191 125 146 156 175 187 175 21 0 32 -7 40 -26z"/>

        <path fill="#243A5E" d="M9498 7733 c-40 -48 -156 -184 -256 -303 -101 -118 -217 -254 -258
-302 -41 -48 -77 -94 -80 -101 -6 -17 12 -32 129 -105 120 -74 164 -112 183
-157 21 -51 18 -88 -21 -224 -19 -67 -35 -128 -35 -136 0 -15 105 -82 294
-185 l58 -32 91 46 c92 45 193 101 212 116 15 12 85 24 130 22 28 -1 93 -28
216 -88 l177 -87 30 34 c16 19 49 59 73 89 25 30 93 114 151 186 58 72 136
169 174 215 37 46 105 130 151 186 45 55 83 105 83 110 0 4 -55 39 -123 77
-157 90 -203 123 -227 161 -25 41 -27 78 -10 193 9 57 10 96 4 101 -21 21
-351 194 -367 193 -9 0 -59 -24 -110 -53 -77 -45 -102 -53 -154 -57 l-63 -4
-179 96 c-99 53 -184 96 -190 96 -5 0 -43 -39 -83 -87z m668 -267 c77 -24 166
-88 207 -149 56 -81 71 -142 64 -252 -8 -134 -50 -218 -167 -336 -72 -73 -99
-93 -180 -132 -111 -53 -170 -67 -283 -67 -90 0 -141 10 -203 41 -163 81 -245
238 -214 412 22 125 119 279 220 352 23 17 54 39 68 51 42 32 150 75 227 90
84 16 191 12 261 -10z"/>

        <path fill="#243A5E" d="M9935 7374 c-117 -31 -211 -81 -289 -155 -106 -98 -149 -192 -148
-321 1 -110 52 -181 167 -235 53 -24 71 -28 150 -27 76 1 103 7 172 33 246 96
392 328 328 522 -37 110 -145 180 -285 185 -41 2 -84 0 -95 -2z"/>

        <path fill="#243A5E" d="M8735 6831 c-47 -55 -90 -103 -95 -106 -25 -16 0 -39 133 -124 151
-96 179 -119 196 -164 18 -47 13 -94 -23 -190 -19 -51 -40 -112 -47 -136 -16
-53 -29 -41 179 -158 176 -98 151 -97 287 -10 150 96 204 120 265 120 50 0 74
-9 248 -98 163 -82 195 -96 206 -84 42 46 188 231 185 234 -2 2 -80 40 -172
85 -191 94 -190 94 -288 30 -116 -75 -241 -132 -295 -133 -45 -2 -64 6 -216
92 -264 149 -264 148 -202 394 29 116 30 149 7 170 -17 14 -272 177 -279 177
-2 0 -41 -45 -89 -99z"/>

        <path fill="#243A5E" d="M8455 6499 c-49 -60 -91 -113 -93 -118 -1 -4 44 -36 100 -72 143 -88
227 -149 250 -180 31 -41 24 -88 -32 -244 -44 -120 -51 -147 -40 -160 12 -14
109 -71 257 -152 74 -40 61 -44 242 76 140 93 167 105 229 99 46 -4 208 -80
370 -172 35 -20 68 -34 73 -31 14 9 189 226 189 235 0 11 -361 190 -383 190
-24 0 -44 -11 -152 -83 -188 -125 -231 -135 -345 -77 -105 53 -274 157 -299
183 -42 45 -39 95 14 250 26 79 44 145 40 156 -6 18 -301 212 -321 210 -5 0
-49 -50 -99 -110z"/>

        <path fill="#243A5E" d="M8188 6184 c-54 -62 -98 -119 -98 -126 0 -7 21 -25 48 -40 102 -59
297 -194 315 -220 14 -19 20 -43 20 -80 0 -62 -30 -132 -116 -280 -32 -53 -57
-98 -57 -101 0 -5 126 -87 134 -87 3 0 55 -30 116 -66 l112 -67 66 65 c181
176 212 201 282 228 39 15 64 19 92 15 33 -6 277 -124 402 -194 39 -22 40 -22
55 -3 9 11 53 65 99 120 45 55 82 104 82 109 0 4 -33 24 -73 43 -39 20 -127
65 -194 100 l-121 64 -34 -16 c-19 -8 -79 -48 -133 -88 -112 -82 -186 -120
-230 -120 -37 0 -345 167 -390 211 -27 27 -30 35 -29 92 0 49 11 89 48 186 26
69 44 131 42 138 -4 10 -271 192 -331 225 -5 3 -54 -46 -107 -108z"/>

        <path fill="#243A5E" d="M7987 5948 c-8 -13 -54 -68 -101 -123 -47 -55 -86 -105 -86 -112 0
-6 28 -35 63 -64 34 -30 64 -57 67 -60 15 -18 261 -189 272 -189 16 0 153 252
163 298 6 28 2 36 -23 60 -32 30 -316 212 -331 212 -5 0 -16 -10 -24 -22z"/>

        <path fill="#243A5E" d="M9035 5318 c-20 -11 -101 -82 -220 -193 -73 -67 -82 -56 135 -164
153 -76 240 -111 277 -111 21 0 77 56 146 145 26 33 60 77 78 97 l31 38 -202
100 c-111 55 -207 100 -213 100 -7 0 -21 -6 -32 -12z"/>

        <path fill="#243A5E" d="M11984 7806 c-55 -26 -91 -65 -123 -136 -17 -38 -21 -66 -21 -183 l0
-138 -67 -82 c-36 -45 -96 -118 -133 -162 -37 -44 -267 -330 -511 -635 -244
-305 -510 -635 -589 -734 -80 -98 -174 -216 -210 -261 -36 -45 -148 -185 -250
-311 -102 -127 -267 -331 -367 -456 -225 -280 -262 -312 -459 -391 -233 -94
-430 -106 -634 -37 -101 33 -304 129 -413 193 -43 26 -80 47 -82 47 -9 0 -273
165 -349 217 -514 356 -761 606 -778 787 -2 16 -8 31 -13 33 -13 4 -240 -339
-304 -459 -121 -229 -110 -296 79 -506 53 -59 141 -148 196 -197 360 -328 590
-486 1039 -715 246 -126 412 -194 511 -211 61 -11 80 -10 141 5 98 23 206 66
344 137 154 79 229 148 442 413 89 111 232 289 318 396 87 107 210 260 275
340 126 154 487 602 943 1170 823 1023 1173 1465 1191 1499 26 51 37 200 20
269 -6 29 -25 70 -41 92 -25 34 -34 40 -67 40 -20 0 -60 -11 -88 -24z"/>

        <path fill="#243A5E" d="M1543 6368 c-6 -7 -13 -22 -16 -33 -8 -31 -152 -443 -176 -505 -11
-30 -21 -61 -21 -67 0 -10 567 -13 2801 -13 l2801 0 38 38 c38 40 74 59 195
106 39 15 119 53 180 84 l110 57 137 164 c76 91 138 168 138 173 0 4 -1390 8
-3089 8 -2459 0 -3091 -3 -3098 -12z"/>

        <path fill="#243A5E" d="M1201 5408 c-5 -13 -25 -70 -45 -128 -21 -58 -67 -186 -102 -285 -36
-99 -66 -184 -67 -190 -1 -7 913 -10 2728 -10 l2730 0 1 90 c1 85 4 96 47 187
24 52 78 151 118 219 41 68 76 127 77 132 2 4 -1230 7 -2737 7 l-2741 0 -9
-22z"/>

        <path fill="#243A5E" d="M842 4413 c-49 -141 -123 -347 -161 -447 -22 -60 -41 -116 -41 -123
0 -11 587 -13 3388 -12 2624 0 3383 3 3369 12 -63 41 -223 158 -287 210 -85
69 -354 314 -415 376 l-39 41 -2897 0 -2897 0 -20 -57z"/>

    </g>
</svg>






